<svg width="104" height="103" viewBox="0 0 104 103" fill="none" xmlns="http://www.w3.org/2000/svg">
<g clip-path="url(#clip0_7_2662)">
<path d="M44.1556 52.1883C38.1059 53.1867 32.4987 58.7368 31.4896 64.7311C30.4888 70.6778 34.3191 74.7464 39.5721 74.7464C46.2037 74.7464 52.9868 68.7166 54.1098 62.0456C55.1812 55.679 50.6564 51.1159 44.1556 52.1883ZM38.2087 58.842C40.8135 56.2625 44.9251 54.3884 48.0969 55.5734C46.5958 56.4739 45.0073 56.6789 42.8073 58.8575C40.9376 60.7093 41.0935 62.4084 41.1969 63.5328C41.2812 64.4506 41.3197 64.8695 40.5158 65.6656C38.5038 67.658 37.2854 67.3735 35.0644 68.986C33.787 66.277 35.0129 62.0068 38.2087 58.842ZM47.3908 67.9351C44.7643 70.5361 40.6483 72.3787 37.5024 71.2037C38.9889 70.312 40.594 70.0964 42.7922 67.9196C44.6619 66.0678 44.506 64.3687 44.4026 63.2443C44.3183 62.3265 44.2799 61.9075 45.0838 61.1115C47.0963 59.1183 48.3124 59.4048 50.5351 57.7911C51.8126 60.5001 50.5866 64.7703 47.3908 67.9351Z" fill="black"/>
<path d="M79.1274 73.748C94.091 73.748 103.956 62.3727 103.956 49.8418C103.956 44.5691 99.6244 40.2793 94.2998 40.2793H84.1877L84.6393 34.0179C84.7057 33.0965 83.9684 32.3105 83.0342 32.3105H2.56543C1.6326 32.3105 0.893691 33.0949 0.960279 34.0179L2.63644 57.2557C3.58135 70.3583 9.2043 82.3194 17.9022 91.2793H2.56543C1.67665 91.2793 0.956055 91.9929 0.956055 92.873C0.956055 98.1458 5.28769 102.436 10.6123 102.436H74.9873C80.3119 102.436 84.6436 98.1458 84.6436 92.873C84.6436 91.9929 83.923 91.2793 83.0342 91.2793H67.6974C72.7652 86.059 76.5576 80.0774 79.1274 73.748ZM83.4981 49.8418H94.2998C94.2998 56.9657 88.9665 62.9384 82.0478 64.011C82.903 59.7306 82.9678 57.1946 83.4981 49.8418ZM94.2998 43.4668C97.8495 43.4668 100.737 46.3266 100.737 49.8418C100.737 61.1469 91.627 70.2986 80.3055 70.5546C80.664 69.483 80.9895 68.402 81.2796 67.3115C90.3422 66.5678 97.5186 58.9782 97.5186 49.8418C97.5186 48.0843 96.0745 46.6543 94.2998 46.6543H83.728L83.958 43.4668H94.2998ZM74.9873 99.248H10.6123C7.61806 99.248 5.09476 97.2134 4.37859 94.4668H81.2212C80.5048 97.2134 77.9815 99.248 74.9873 99.248ZM22.5064 91.2793C12.7089 82.3433 6.79728 70.2059 5.84695 57.0286L4.2939 35.498H81.3057L79.7527 57.0286C78.8035 70.1896 72.8995 82.3352 63.0932 91.2793H22.5064Z" fill="black"/>
<path d="M40.3857 19.5605C40.3857 20.4407 41.1063 21.1543 41.9951 21.1543C42.8839 21.1543 43.6045 20.4407 43.6045 19.5605C43.6045 17.2793 45.2139 17.0315 45.2139 13.7167C45.2139 11.8492 44.6586 10.8413 44.2126 10.0315C43.8465 9.36652 43.6045 8.92725 43.6045 7.87258C43.6045 5.59153 45.2139 5.3441 45.2139 2.0293C45.2139 1.14915 44.4933 0.435547 43.6045 0.435547C42.7157 0.435547 41.9951 1.14915 41.9951 2.0293C41.9951 4.31035 40.3857 4.55798 40.3857 7.87258C40.3857 9.74006 40.941 10.7479 41.387 11.5577C41.7531 12.2227 41.9951 12.662 41.9951 13.7167C41.9951 15.9979 40.3857 16.2457 40.3857 19.5605Z" fill="black"/>
<path d="M55.6748 25.9355C55.6748 26.8157 56.3954 27.5293 57.2842 27.5293C58.173 27.5293 58.8936 26.8157 58.8936 25.9355C58.8936 23.6543 60.5029 23.4065 60.5029 20.0917C60.5029 18.2242 59.9477 17.2163 59.5017 16.4065C59.1356 15.7415 58.8936 15.3022 58.8936 14.2476C58.8936 11.9665 60.5029 11.7191 60.5029 8.4043C60.5029 7.52415 59.7823 6.81055 58.8936 6.81055C58.0048 6.81055 57.2842 7.52415 57.2842 8.4043C57.2842 10.6854 55.6748 10.933 55.6748 14.2476C55.6748 16.1151 56.23 17.1229 56.676 17.9327C57.0422 18.5977 57.2842 19.037 57.2842 20.0917C57.2842 22.3729 55.6748 22.6207 55.6748 25.9355Z" fill="black"/>
<path d="M25.0967 25.9355C25.0967 26.8157 25.8173 27.5293 26.7061 27.5293C27.5948 27.5293 28.3154 26.8157 28.3154 25.9355C28.3154 23.6543 29.9248 23.4065 29.9248 20.0917C29.9248 18.2242 29.3696 17.2163 28.9236 16.4065C28.5574 15.7415 28.3154 15.3022 28.3154 14.2476C28.3154 11.9665 29.9248 11.7191 29.9248 8.4043C29.9248 7.52415 29.2042 6.81055 28.3154 6.81055C27.4267 6.81055 26.7061 7.52415 26.7061 8.4043C26.7061 10.6854 25.0967 10.933 25.0967 14.2476C25.0967 16.1151 25.6519 17.1229 26.0979 17.9327C26.464 18.5977 26.7061 19.037 26.7061 20.0917C26.7061 22.3729 25.0967 22.6207 25.0967 25.9355Z" fill="black"/>
</g>
<defs>
<clipPath id="clip0_7_2662">
<rect width="103" height="102" fill="white" transform="translate(0.956055 0.435547)"/>
</clipPath>
</defs>
</svg>
